<svg xmlns="http://www.w3.org/2000/svg" xmlns:xlink="http://www.w3.org/1999/xlink" width="24" height="18" viewBox="0 0 24 18"><defs><path id="els2a" d="M376.55 301.87c0 .39-.2.74-.57.92l-4.06 2.07v4.24c0 .15-.07.33-.15.46-.1.13-2.32 3.63-7.15 3.63a8.77 8.77 0 0 1-7.13-3.63.84.84 0 0 1-.15-.48v-4.35l-1.53-.81v2.9c0 .37-.28.65-.64.65a.63.63 0 0 1-.64-.64v-3.58l-.92-.43a1.07 1.07 0 0 1-.61-.92c0-.41.26-.74.59-.92l10.72-4.83a.97.97 0 0 1 .85 0l10.72 4.83c.36.18.61.51.67.9zm-6.44 6.92v-3l-4.88 2.47c-.15.07-.33.1-.48.1a1 1 0 0 1-.46-.1l-5.16-2.63v3.16c.51.64 2.32 2.6 5.49 2.6 3.24 0 4.98-1.98 5.49-2.6zm3.01-6.81l-8.37-3.78-8.38 3.78 8.38 4.23zm-17.31 6.35c.18.18.3.46.3.72 0 .25-.1.54-.3.71-.18.18-.46.31-.72.31a.97.97 0 0 1-.71-.3c-.18-.18-.3-.47-.3-.72 0-.26.1-.54.3-.72.18-.17.46-.3.71-.3a1 1 0 0 1 .72.3z"/></defs><g><g transform="translate(-353 -296)"><use fill="#4391f2" xlink:href="#els2a"/></g></g></svg>