<?xml version="1.0" encoding="UTF-8"?>
<svg width="479px" height="88px" viewBox="0 0 479 88" version="1.1" xmlns="http://www.w3.org/2000/svg" xmlns:xlink="http://www.w3.org/1999/xlink">
    <!-- Generator: Sketch 43.2 (39069) - http://www.bohemiancoding.com/sketch -->
    <title>logo_w@3x</title>
    <desc>Created with Sketch.</desc>
    <defs></defs>
    <g id="Final" stroke="none" stroke-width="1" fill="none" fill-rule="evenodd">
        <g id="Desktop" transform="translate(-261.000000, -488.000000)" fill="#FFFFFF">
            <g id="logo_w" transform="translate(261.000000, 488.000000)">
                <path d="M24.1,68.3 C17.366633,68.3 11.66669,65.833358 7,60.9 C2.33331,55.966642 0,50.066701 0,43.2 C0,36.333299 2.3499765,30.4166915 7.05,25.45 C11.7500235,20.4833085 17.399967,18 24,18 C30.600033,18 36.2166435,20.5166415 40.85,25.55 C45.4833565,30.5833585 47.8,36.566632 47.8,43.5 C47.8,50.433368 45.46669,56.166644 40.8,60.7 C36.399978,65.766692 30.833367,68.3 24.1,68.3 Z M14.5,32.7 C12.099988,35.500014 10.9,38.966646 10.9,43.1 C10.9,47.233354 12.099988,50.766652 14.5,53.7 C17.100013,56.166679 20.233315,57.4 23.9,57.4 C27.566685,57.4 30.699987,56.166679 33.3,53.7 C35.900013,50.766652 37.2,47.233354 37.2,43.1 C37.2,38.966646 35.900013,35.500014 33.3,32.7 C30.433319,30.166654 27.300017,28.9 23.9,28.9 C20.499983,28.9 17.366681,30.166654 14.5,32.7 Z M57.1,68 L56.1,67.9 C54.833327,67.566665 53.800004,66.933338 53,66 C52.199996,65.066662 51.8,63.966673 51.8,62.7 L51.8,23.4 C51.8,21.866659 52.3166615,20.5833385 53.35,19.55 C54.3833385,18.5166615 55.633326,18 57.1,18 C59.433345,18 61.033329,18.99999 61.9,21 C65.300017,18.99999 68.866648,18 72.6,18 C79.000032,18 84.233313,20.299977 88.3,24.9 C92.233353,20.299977 97.266636,18 103.4,18 C109.533364,18 114.633313,20.0499795 118.7,24.15 C122.766687,28.2500205 124.8,33.199971 124.8,39 L124.8,62.7 C124.8,64.166674 124.283339,65.4166615 123.25,66.45 C122.216661,67.4833385 120.966674,68 119.5,68 C118.033326,68 116.766672,67.4833385 115.7,66.45 C114.633328,65.4166615 114.1,64.166674 114.1,62.7 L114.1,39 C114.1,36.133319 113.10001,33.70001 111.1,31.7 C109.09999,29.69999 106.71668,28.7 103.95,28.7 C101.18332,28.7 98.80001,29.666657 96.8,31.6 C94.79999,33.533343 93.733334,35.899986 93.6,38.7 L93.6,62.7 C93.6,64.166674 93.0833385,65.4166615 92.05,66.45 C91.0166615,67.4833385 89.7833405,68 88.35,68 C86.9166595,68 85.6500055,67.466672 84.55,66.4 C83.4499945,65.333328 82.9,64.100007 82.9,62.7 L82.9,38.7 C82.833333,35.966653 81.80001,33.6166765 79.8,31.65 C77.79999,29.6833235 75.4166805,28.7 72.65,28.7 C69.8833195,28.7 67.50001,29.69999 65.5,31.7 C63.49999,33.70001 62.5,36.133319 62.5,39 L62.5,62.7 L62.4,63.4 L62.4,63.7 L62.1,64.3 L62.1,64.8 C61.033328,66.933344 59.366678,68 57.1,68 Z M176.9,41.7 C176.9,43.166674 176.416671,44.3499955 175.45,45.25 C174.483328,46.1500045 173.200008,46.6 171.6,46.6 L139.8,46.6 C140.400003,49.466681 141.533325,51.666659 143.2,53.2 C145.333344,55.666679 148.44998,57.1499975 152.55,57.65 C156.65002,58.1500025 160.199985,57.333344 163.2,55.2 C164.200005,54.133328 165.533325,53.6 167.2,53.6 C168.866675,53.6 170.03333,54.033329 170.7,54.9 C172.566676,56.966677 172.566676,59.133322 170.7,61.4 C165.899976,65.800022 160.016701,67.9833335 153.05,67.95 C146.083298,67.9166665 140.250023,65.466691 135.55,60.6 C130.849976,55.733309 128.466667,49.866701 128.4,43 C128.466667,36.133299 130.849976,30.2500245 135.55,25.35 C140.250023,20.4499755 145.9333,18 152.6,18 C159.2667,18 164.88331,20.1833115 169.45,24.55 C174.016689,28.9166885 176.499998,34.466633 176.9,41.2 L176.9,41.7 Z M152.8,27.5 C148.933314,27.700001 145.833345,28.899989 143.5,31.1 C141.166655,33.300011 139.766669,35.633321 139.3,38.1 L167.6,38.1 C166.999997,35.766655 165.383347,33.500011 162.75,31.3 C160.116653,29.099989 156.80002,27.833335 152.8,27.5 Z M187.5,60.8 C182.83331,55.999976 180.5,50.1500345 180.5,43.25 C180.5,36.3499655 182.83331,30.4166915 187.5,25.45 C192.16669,20.4833085 197.8333,18 204.5,18 C209.566692,18 214.033314,19.399986 217.9,22.2 C218.166668,20.999994 218.799995,20.000004 219.8,19.2 C220.800005,18.399996 221.983327,18 223.35,18 C224.716674,18 225.916662,18.5166615 226.95,19.55 C227.983339,20.5833385 228.5,21.833326 228.5,23.3 L228.5,61.9 C228.5,68.500033 226.150024,74.1499765 221.45,78.85 C216.749977,83.5500235 211.100033,85.9 204.5,85.9 C200.699981,85.9 197.200016,85.066675 194,83.4 C192.66666,82.799997 191.766669,81.7833405 191.3,80.35 C190.833331,78.9166595 190.93333,77.53334 191.6,76.2 C192.26667,74.86666 193.283327,73.966669 194.65,73.5 C196.016674,73.033331 197.399993,73.099997 198.8,73.7 C200.533342,74.633338 202.716654,75.1 205.35,75.1 C207.983347,75.1 210.516655,74.0833435 212.95,72.05 C215.383346,70.0166565 216.93333,67.466682 217.6,64.4 C213.733314,67.06668 209.366691,68.4 204.5,68.4 C197.8333,68.4 192.16669,65.866692 187.5,60.8 Z M195.1,53.4 C197.633346,56.200014 200.783315,57.6 204.55,57.6 C208.316686,57.6 211.466654,56.233347 214,53.5 C216.533346,50.766653 217.8,47.366687 217.8,43.3 C217.8,39.233313 216.51668,35.7833475 213.95,32.95 C211.383321,30.1166525 208.266685,28.7 204.6,28.7 C200.933315,28.7 197.800013,30.1499855 195.2,33.05 C192.599987,35.9500145 191.3,39.366647 191.3,43.3 C191.3,47.233353 192.566654,50.599986 195.1,53.4 Z" id="omega-bijles"></path>
                <path d="M286.397338,66.7324316 C286.397338,69.7510542 283.944785,72.1961731 280.921545,72.1961731 L268.817012,72.1961731 C265.793773,72.1961731 263.34122,69.7510542 263.34122,66.7324316 L263.34122,58.1759027 C263.34122,56.0629091 264.562229,54.1399768 266.47584,53.2367227 C271.355873,50.9339336 274.5126,45.9648655 274.5126,40.5889798 C274.5126,32.8803028 268.217587,26.6044253 260.480769,26.6044253 C252.743996,26.6044253 246.449137,32.8802592 246.449137,40.5889798 C246.449137,45.9649899 249.605797,50.933902 254.485815,53.2366837 C256.399591,54.1396137 257.620716,56.0626075 257.620716,58.1759027 L257.620716,66.7324316 C257.620716,69.7510542 255.168163,72.1961731 252.144924,72.1961731 L240.039993,72.1961731 C237.016753,72.1961731 234.564201,69.7510542 234.564201,66.7324316 C234.564201,63.7138089 237.016753,61.26869 240.039993,61.26869 L248.169131,61.26869 L246.669131,62.76869 L246.669131,60.5281851 L247.38404,61.8063213 C247.142963,61.6582406 246.904632,61.5062171 246.669131,61.3503306 C243.735523,59.384057 241.333173,56.9463799 239.48451,54.0931922 C236.876447,50.0681887 235.497552,45.3973869 235.497552,40.5889798 C235.497552,26.8500218 246.704601,15.6769423 260.480769,15.6769423 C274.256939,15.6769423 285.464186,26.850023 285.464186,40.5887816 C285.464186,45.3971654 284.085303,50.0681618 281.477447,54.0929615 C279.628598,56.946437 277.226322,59.3841956 274.415393,61.26869 C274.057291,61.5062421 273.818948,61.6582659 273.577858,61.8063446 L274.292805,60.5281851 L274.292805,62.76869 L272.792805,61.26869 L280.921545,61.26869 C283.944785,61.26869 286.397338,63.7138089 286.397338,66.7324316 Z" id="Shape" fill-rule="nonzero" transform="translate(260.480769, 43.936558) rotate(-90.000000) translate(-260.480769, -43.936558) "></path>
                <path d="M293.3,64.6 L293.3,5.4 C293.3,3.933326 293.833328,2.666672 294.9,1.6 C295.966672,0.533328 297.249993,0 298.75,0 C300.250008,0 301.533328,0.533328 302.6,1.6 C303.666672,2.666672 304.2,3.933326 304.2,5.4 L304.2,24.2 C308.20002,21.399986 312.666642,20 317.6,20 C324.333367,20 330.066643,22.466642 334.8,27.4 C339.533357,32.333358 341.9,38.2166325 341.9,45.05 C341.9,51.8833675 339.533357,57.7499755 334.8,62.65 C330.066643,67.5500245 324.333367,70 317.6,70 C312.733309,70 308.200021,68.566681 304,65.7 C303.733332,66.900006 303.116672,67.9166625 302.15,68.75 C301.183329,69.5833375 300.000007,70 298.6,70 C297.199993,70 295.966672,69.466672 294.9,68.4 C293.833328,67.333328 293.3,66.066674 293.3,64.6 Z M317.6,30.9 C313.866648,30.9 310.700013,32.299986 308.1,35.1 C305.499987,37.900014 304.2,41.2166475 304.2,45.05 C304.2,48.8833525 305.516654,52.1833195 308.15,54.95 C310.783347,57.7166805 313.933315,59.1 317.6,59.1 C321.266685,59.1 324.416654,57.7166805 327.05,54.95 C329.683347,52.1833195 331,48.8833525 331,45.05 C331,41.2166475 329.700013,37.900014 327.1,35.1 C324.499987,32.299986 321.333352,30.9 317.6,30.9 Z M350.8,20.1 C352.333341,20.1 353.616662,20.6166615 354.65,21.65 C355.683339,22.6833385 356.2,23.999992 356.2,25.6 L356.2,64.6 C356.2,66.133341 355.683339,67.4166615 354.65,68.45 C353.616662,69.4833385 352.350008,70 350.85,70 C349.349993,70 348.066672,69.466672 347,68.4 C345.933328,67.333328 345.4,66.066674 345.4,64.6 L345.4,25.6 C345.4,23.999992 345.916662,22.6833385 346.95,21.65 C347.983339,20.6166615 349.266659,20.1 350.8,20.1 Z M356.2,4.48615393 L356.2,6.23076934 C356.2,7.50462189 355.683339,8.58461111 354.65,9.4707694 C353.616662,10.3569277 352.350008,10.8000002 350.85,10.8000002 C349.349993,10.8000002 348.066672,10.3569277 347,9.4707694 C345.933328,8.58461111 345.4,7.50462189 345.4,6.23076934 L345.4,4.48615393 C345.4,3.26768627 345.933328,2.21538909 347,1.32923079 C348.066672,0.4430725 349.349993,0 350.85,0 C352.350008,0 353.616662,0.429226485 354.65,1.28769233 C355.683339,2.14615818 356.2,3.21230138 356.2,4.48615393 Z M365.7,10.9000002 C364.233326,10.9000002 362.950006,10.4430817 361.85,9.52923094 C360.749995,8.6153802 360.2,7.54923699 360.2,6.33076934 L360.2,4.66923085 C360.2,3.33999341 360.733328,2.24615818 361.8,1.38769233 C362.866672,0.529226485 364.166659,0.1 365.7,0.1 C367.233341,0.1 368.516662,0.529226485 369.55,1.38769233 C370.583339,2.24615818 371.1,3.33999341 371.1,4.66923085 L371.1,6.33076934 C371.1,7.54923699 370.566672,8.6153802 369.5,9.52923094 C368.433328,10.4430817 367.166674,10.9000002 365.7,10.9000002 Z M360.1,87.7 C358.499992,87.7 357.183339,87.1833385 356.15,86.15 C355.116662,85.1166615 354.6,83.833341 354.6,82.3 C354.6,80.766659 355.116662,79.4833385 356.15,78.45 C357.183339,77.4166615 358.499992,76.9 360.1,76.9 L360.1,25.5 C360.1,23.966659 360.633328,22.666672 361.7,21.6 C362.766672,20.533328 364.049993,20 365.55,20 C367.050008,20 368.316662,20.533328 369.35,21.6 C370.383339,22.666672 370.9,23.966659 370.9,25.5 L370.9,76.9 C370.9,79.833348 369.850011,82.366656 367.75,84.5 C365.64999,86.633344 363.100015,87.7 360.1,87.7 Z M375,5.5 C375,3.966659 375.533328,2.666672 376.6,1.6 C377.666672,0.533328 378.966659,0 380.5,0 C382.033341,0 383.349995,0.533328 384.45,1.6 C385.550006,2.666672 386.1,3.966659 386.1,5.5 L386.1,64.5 C386.1,66.033341 385.550006,67.333328 384.45,68.4 C383.349995,69.466672 382.033341,70 380.5,70 C378.966659,70 377.666672,69.466672 376.6,68.4 C375.533328,67.333328 375,66.033341 375,64.5 L375,5.5 Z M438.2,43.7 C438.2,45.166674 437.716672,46.3499955 436.75,47.25 C435.783329,48.1500045 434.500008,48.6 432.9,48.6 L401.1,48.6 C401.700003,51.466681 402.833325,53.666659 404.5,55.2 C406.633344,57.666679 409.74998,59.1499975 413.85,59.65 C417.950021,60.1500025 421.499985,59.333344 424.5,57.2 C425.500005,56.133328 426.833325,55.6 428.5,55.6 C430.166675,55.6 431.33333,56.033329 432,56.9 C433.866676,58.966677 433.866676,61.133322 432,63.4 C427.199976,67.800022 421.316702,69.9833335 414.35,69.95 C407.383299,69.9166665 401.550024,67.466691 396.85,62.6 C392.149977,57.733309 389.766667,51.866701 389.7,45 C389.766667,38.133299 392.149977,32.2500245 396.85,27.35 C401.550024,22.4499755 407.2333,20 413.9,20 C420.5667,20 426.183311,22.1833115 430.75,26.55 C435.31669,30.9166885 437.799998,36.466633 438.2,43.2 L438.2,43.7 Z M414.1,29.5 C410.233314,29.700001 407.133345,30.899989 404.8,33.1 C402.466655,35.300011 401.066669,37.633321 400.6,40.1 L428.9,40.1 C428.299997,37.766655 426.683347,35.500011 424.05,33.3 C421.416654,31.099989 418.10002,29.833335 414.1,29.5 Z M474,25.5 C475.200006,26.300004 475.949999,27.4166595 476.25,28.85 C476.550002,30.2833405 476.333337,31.633327 475.6,32.9 C474.799996,34.100006 473.683341,34.8499985 472.25,35.15 C470.81666,35.4500015 469.466673,35.166671 468.2,34.3 C464.466648,31.833321 461.383346,30.6 458.95,30.6 C456.516655,30.6 454.533341,31.199994 453,32.4 C451.933328,33.133337 451.4,33.7833305 451.4,34.35 C451.4,34.9166695 451.483333,35.333332 451.65,35.6 C451.816668,35.866668 452.166664,36.166665 452.7,36.5 C454.166674,37.500005 456.599983,38.299997 460,38.9 L460.1,39 L460.2,39 C463.733351,39.66667 466.966652,40.66666 469.9,42 C472.833348,43.33334 474.999993,45.166655 476.4,47.5 C477.800007,49.833345 478.5,52.133322 478.5,54.4 C478.5,59.06669 476.400021,62.933318 472.2,66 C468.333314,68.66668 464.000024,70 459.2,70 C452.999969,69.933333 447.066695,67.633356 441.4,63.1 C440.333328,62.233329 439.716668,61.0500075 439.55,59.55 C439.383333,58.0499925 439.766662,56.766672 440.7,55.7 C441.566671,54.499994 442.766659,53.833334 444.3,53.7 C445.833341,53.566666 447.133328,53.966662 448.2,54.9 C451.800018,57.900015 455.466648,59.366667 459.2,59.3 C461.733346,59.3 463.99999,58.666673 466,57.4 C467.200006,56.399995 467.8,55.5500035 467.8,54.85 C467.8,54.1499965 467.700001,53.666668 467.5,53.4 C467.366666,53.066665 466.933337,52.666669 466.2,52.2 C464.599992,51.066661 461.933352,50.133337 458.2,49.4 L458.1,49.4 C454.566649,48.73333 451.483347,47.766673 448.85,46.5 C446.216654,45.233327 444.100008,43.400012 442.5,41 C441.366661,39.133324 440.8,37.033345 440.8,34.7 C440.8,30.366645 442.766647,26.700015 446.7,23.7 C450.300018,21.233321 454.416644,20 459.05,20 C463.683357,20 468.66664,21.833315 474,25.5 Z" id="bijles"></path>
            </g>
        </g>
    </g>
</svg>