<svg xmlns="http://www.w3.org/2000/svg" xmlns:xlink="http://www.w3.org/1999/xlink" width="110" height="110" viewBox="0 0 110 110"><defs><path id="bpora" d="M550.55 292.37a54.85 54.85 0 0 1 0 77.49 54.85 54.85 0 0 1-77.48 0 54.85 54.85 0 0 1 0-77.49 54.64 54.64 0 0 1 38.75-16.02 54.6 54.6 0 0 1 38.73 16.02zm-72.32 5.17a47.44 47.44 0 0 0 0 67.15 47.44 47.44 0 0 0 67.16 0 47.44 47.44 0 0 0 0-67.15 47.32 47.32 0 0 0-33.57-13.93 47.35 47.35 0 0 0-33.59 13.93zm55.59 18.96a3.65 3.65 0 0 1 2.1 6.6l-29.23 21.92a3.65 3.65 0 0 1-4.76-.34l-14.61-14.61a3.65 3.65 0 1 1 5.16-5.17l12.37 12.37 26.69-20.02a3.65 3.65 0 0 1 2.28-.75z"/></defs><g><g transform="translate(-457 -276)"><use fill="#4391f2" xlink:href="#bpora"/></g></g></svg>