<svg xmlns="http://www.w3.org/2000/svg" xmlns:xlink="http://www.w3.org/1999/xlink" width="16" height="17" viewBox="0 0 16 17"><defs><path id="n593a" d="M443 784.67c0-1.4-1.27-2.67-2.67-2.67h-10.66a2.76 2.76 0 0 0-2.67 2.67v10.66c0 1.4 1.27 2.67 2.67 2.67H435v-6.04h-1.96v-2.67H435v-1.04c0-1.8 1.35-3.4 3-3.4h2.16v2.66H438c-.24 0-.51.29-.51.72v1.06h2.67v2.67h-2.67V798h2.84c1.4 0 2.67-1.27 2.67-2.67z"/></defs><g><g transform="translate(-427 -782)"><use fill="#3b5998" xlink:href="#n593a"/></g></g></svg>