<svg width="18px" height="17px" viewBox="0 0 18 17" version="1.1" xmlns="http://www.w3.org/2000/svg" xmlns:xlink="http://www.w3.org/1999/xlink">
<!-- Generator: Sketch 48.2 (47327) - http://www.bohemiancoding.com/sketch -->
<desc>Created with Sketch.</desc>
<defs></defs>
<g id="Page-1" stroke="none" stroke-width="1" fill="none" fill-rule="evenodd">
<g id="Desktop-Copy" transform="translate(-356.000000, -294.000000)" fill="#4391F2" fill-rule="nonzero">
<g id="User,-Man,-Contact,-Profileoutline,-Account,-Interface" transform="translate(356.000000, 293.000000)">
<g id="svg2">
<g id="layer1" transform="translate(0.000000, 0.814822)">
<path d="M8.94285714,0.46272898 C6.83264474,0.46272898 5.11022146,2.18525102 5.11020408,4.29538204 C5.11022146,6.40564082 6.83264474,8.1280351 8.94285714,8.1280351 C11.0530694,8.1280351 12.7754923,6.40564082 12.7755102,4.29538204 C12.7754923,2.18525102 11.0530694,0.46272898 8.94285714,0.46272898 Z M8.94285714,1.5581292 C10.4612688,1.5581292 11.6800971,2.77701265 11.6801099,4.29538204 C11.6800971,5.81387918 10.4612688,7.03513006 8.94285714,7.03513006 C7.42444547,7.03513006 6.2056167,5.81387918 6.2056043,4.29538204 C6.2056167,2.77701265 7.42444547,1.55800145 8.94285714,1.5581292 Z M8.94285714,9.40558612 C4.05230241,9.40558612 0,12.7730829 0,17.0708922 L1.27755102,17.0708922 C1.27755102,13.5834335 4.63248943,10.6831371 8.94285714,10.6831371 C13.2532249,10.6831371 16.6081633,13.5834335 16.6081633,17.0708922 L17.8857143,17.0708922 C17.8857143,12.7730829 13.8334119,9.40558612 8.94285714,9.40558612 Z" id="circle5162"></path>
</g>
</g>
</g>
</g>
</g>
</svg>