<svg xmlns="http://www.w3.org/2000/svg" xmlns:xlink="http://www.w3.org/1999/xlink" width="17" height="18" viewBox="0 0 17 18"><defs><path id="qbjra" d="M732.18 295.88a8.57 8.57 0 0 1 0 11.96 8.21 8.21 0 0 1-11.74 0 8.57 8.57 0 0 1 0-11.96 8.2 8.2 0 0 1 11.74 0zm-10.96.8a7.41 7.41 0 0 0 0 10.36 7.1 7.1 0 0 0 10.18 0 7.41 7.41 0 0 0 0-10.36 7.1 7.1 0 0 0-10.18 0zm8.42 2.92c.24 0 .45.16.52.4.08.23 0 .48-.2.62l-4.43 3.38a.55.55 0 0 1-.72-.05l-2.21-2.25a.57.57 0 0 1-.16-.55c.05-.2.2-.35.4-.4.2-.06.4 0 .54.15l1.87 1.9 4.05-3.08a.55.55 0 0 1 .34-.12z"/></defs><g><g transform="translate(-718 -293)"><use fill="#4391f2" xlink:href="#qbjra"/></g></g></svg>